<svg viewBox="0 0 64 64" xmlns="http://www.w3.org/2000/svg"><path d="m59.5 30.6c0 23.5-27.5 31.4-27.5 31.4s-27.5-7.9-27.5-31.4c0-17.5 11-28.6 27.5-28.6s27.5 11.1 27.5 28.6z" fill="#c7e755"/><g fill="#454749"><path d="m23.4 26.4c4 3.8 5.1 8.9 2.6 11.4-2.5 2.4-7.8 1.3-11.7-2.5-4-3.8-5.1-8.9-2.6-11.4s7.7-1.4 11.7 2.5"/><path d="m26.4 30.6c-2.6-2.3-5.2-4.1-8-5.7-1.4-.8-2.9-1.5-4.4-2.1s-3.1-1.2-4.7-1.8c1.7-.2 3.5-.1 5.2.3s3.4 1 4.9 1.8 2.9 1.9 4.2 3.2c1.1 1.2 2.2 2.6 2.8 4.3"/></g><path d="m20.4 25c2 1.2 3.1 3.1 2.5 4.1-.7 1-2.9.8-4.9-.4s-3.1-3.1-2.5-4.1c.7-1 2.8-.8 4.9.4" fill="#fff"/><g fill="#454749"><path d="m40.6 26.4c-4 3.8-5.1 8.9-2.6 11.4 2.5 2.4 7.8 1.3 11.7-2.5 4-3.8 5.1-8.9 2.6-11.4s-7.7-1.4-11.7 2.5"/><path d="m37.6 30.6c.6-1.6 1.7-3 2.9-4.3 1.2-1.2 2.6-2.3 4.2-3.2 1.5-.9 3.2-1.5 4.9-1.8 1.7-.4 3.4-.5 5.2-.3-1.6.6-3.2 1.1-4.7 1.8-1.5.6-3 1.3-4.4 2.1-2.9 1.5-5.5 3.4-8.1 5.7"/></g><path d="m43.6 25c-2 1.2-3.1 3.1-2.5 4.1.7 1 2.9.8 4.9-.4s3.1-3.1 2.5-4.1c-.7-1-2.8-.8-4.9.4" fill="#fff"/><path d="m32 48.6c-7.6 0-10.7-3.7-10.7-2.4 0 1.9 4.8 4.4 10.7 4.4s10.7-2.5 10.7-4.4c0-1.3-3.1 2.4-10.7 2.4z" fill="#454749" stroke="#454749" stroke-miterlimit="10"/></svg>